<?xml version="1.0" standalone="no"?><!DOCTYPE svg PUBLIC "-//W3C//DTD SVG 1.1//EN" "http://www.w3.org/Graphics/SVG/1.1/DTD/svg11.dtd"><svg t="1723600265476" class="icon" viewBox="0 0 1024 1024" version="1.1" xmlns="http://www.w3.org/2000/svg" p-id="2320" xmlns:xlink="http://www.w3.org/1999/xlink" width="200" height="200"><path d="M332.8 686.4h361.6v124.8H332.8zM377.6 523.2h286.4c-60.8-33.6-116.8-72-156.8-104-36.8 38.4-81.6 72-129.6 104z" fill="#00902F" p-id="2321"></path><path d="M0 0v1024h1024V0H0z m640 161.6c-8 24-16 48-27.2 70.4h252.8v46.4h-156.8c20.8 27.2 41.6 60.8 51.2 83.2l-51.2 17.6c-11.2-27.2-33.6-68.8-59.2-102.4h-60.8c-17.6 27.2-35.2 52.8-54.4 72-9.6-8-30.4-22.4-43.2-30.4 43.2-41.6 78.4-105.6 97.6-171.2l51.2 14.4z m-368-12.8l51.2 12.8c-9.6 22.4-19.2 44.8-30.4 67.2h211.2v46.4h-134.4c17.6 30.4 33.6 64 40 86.4l-48 16c-9.6-27.2-27.2-68.8-48-104h-48c-25.6 41.6-52.8 78.4-81.6 107.2-9.6-8-32-22.4-43.2-30.4 54.4-46.4 102.4-123.2 131.2-201.6z m476.8 739.2h-54.4v-30.4H332.8v33.6h-52.8V638.4h467.2v249.6zM852.8 608c-56-19.2-113.6-44.8-169.6-75.2v35.2h-336v-28.8c-52.8 30.4-110.4 56-171.2 78.4-8-12.8-22.4-33.6-35.2-43.2 155.2-52.8 291.2-136 360-230.4l51.2 20.8c-4.8 6.4-9.6 14.4-16 19.2 76.8 62.4 224 137.6 353.6 176a544 544 0 0 0-36.8 48z" fill="#00902F" p-id="2322"></path></svg>